inDegrees=no
num_controls=7
num_derivatives=13
num_iterations=70
num_multipliers=7
num_parameters=0
num_slacks=7
num_states=26
objective=0.464730
objective_accelerations=0.058949
objective_balance=0.002208
objective_effort=0.066377
objective_height=0.326544
objective_ligament=0.010652
solver_duration=967.097301
status=Solve_Succeeded
success=true
DataType=double
version=3
OpenSimVersion=4.5
endheader
time	/jointset/ground_pelvis/pelvis_tilt/value	/jointset/ground_pelvis/pelvis_tx/value	/jointset/ground_pelvis/pelvis_ty/value	/jointset/hip_l/hip_flexion_l/value	/jointset/hip_l/hip_adduction_l/value	/jointset/hip_l/hip_rotation_l/value	/jointset/back/lumbar_extension/value	/jointset/patellofemoral_l/patellar_flexion_l/value	/jointset/knee_l/knee_flexion_l/value	/jointset/knee_l/knee_adduction_l/value	/jointset/knee_l/knee_rotation_l/value	/jointset/ankle_l/ankle_angle_l/value	/jointset/subtalar_l/subtalar_angle_l/value	/jointset/ground_pelvis/pelvis_tilt/speed	/jointset/ground_pelvis/pelvis_tx/speed	/jointset/ground_pelvis/pelvis_ty/speed	/jointset/hip_l/hip_flexion_l/speed	/jointset/hip_l/hip_adduction_l/speed	/jointset/hip_l/hip_rotation_l/speed	/jointset/back/lumbar_extension/speed	/jointset/patellofemoral_l/patellar_flexion_l/speed	/jointset/knee_l/knee_flexion_l/speed	/jointset/knee_l/knee_adduction_l/speed	/jointset/knee_l/knee_rotation_l/speed	/jointset/ankle_l/ankle_angle_l/speed	/jointset/subtalar_l/subtalar_angle_l/speed	/forceset/tau_hip_flexion_l	/forceset/tau_hip_adduction_l	/forceset/tau_hip_rotation_l	/forceset/tau_knee_flexion_l	/forceset/tau_ankle_angle_l	/forceset/tau_subtalar_angle_l	/forceset/tau_lumbar_extension	lambda_cid13_p0	lambda_cid13_p1	lambda_cid13_p2	lambda_cid13_p3	lambda_cid13_p4	lambda_cid13_p5	lambda_cid14_p0	/jointset/ground_pelvis/pelvis_tilt/accel	/jointset/ground_pelvis/pelvis_tx/accel	/jointset/ground_pelvis/pelvis_ty/accel	/jointset/hip_l/hip_flexion_l/accel	/jointset/hip_l/hip_adduction_l/accel	/jointset/hip_l/hip_rotation_l/accel	/jointset/back/lumbar_extension/accel	/jointset/patellofemoral_l/patellar_flexion_l/accel	/jointset/knee_l/knee_flexion_l/accel	/jointset/knee_l/knee_adduction_l/accel	/jointset/knee_l/knee_rotation_l/accel	/jointset/ankle_l/ankle_angle_l/accel	/jointset/subtalar_l/subtalar_angle_l/accel	gamma_cid13_p0	gamma_cid13_p1	gamma_cid13_p2	gamma_cid13_p3	gamma_cid13_p4	gamma_cid13_p5	gamma_cid14_p0
1	-0.1041793443167313	-0.07225611445212381	0.4202899709315339	2.090789956675177	-0.2550991901830379	0.3004517769543128	-0.9598739311363814	2.093248046010526	2.093248046010526	0.03174069194613138	-0.1744839368412658	0.2499890814748015	0.1436875782286356	0.02114318548195946	0.002294306888172488	0.06103053349365538	-0.2172835549686488	-0.0357899625014454	-0.06160403708324273	0.00120694584254019	-0.1189004105972397	-0.1189004105972405	-0.008565220049653408	-0.0002638278252820589	0.07380686221907332	-0.007300343371296901	-0.3740314250450023	-0.03386650527436709	0.007469045994730104	-0.4593403675599702	0.1344325531558316	-0.03516611410490392	0.4294545057227876	-16.95033495286252	24.97352444703122	-12.12647597504582	21.02147222698633	-839.7330232342367	-73.13099602250804	-0.02224077646937879	-0.7479151805540568	-0.541113130446055	2.345178820116795	-6.618447530357246	-1.32795772748088	-2.819382250973096	-0.02113216113349312	-6.215574601592714	-6.215574601592631	-0.6706466692920655	-0.03192840979606382	0.7969997308614848	-1.287830640876173	-2.996088283194696e-08	4.263265036634869e-08	-8.360881313754121e-08	5.703955350106824e-08	-3.441084170597665e-09	8.724468651428131e-08	-7.114301436285598e-11
1.01	-0.104004856922002	-0.07226016167132912	0.4210181589856494	2.088283871197938	-0.2555224497070663	0.2996952760555048	-0.9598629858839018	2.091747067005895	2.091747067005896	0.03162119092070914	-0.1744866187219544	0.2507674609260059	0.1435517347829	0.01380828292025659	-0.00309229805340571	0.08466457173239438	-0.2841234204360133	-0.04884186272207972	-0.08969840706948093	0.0009780700792970556	-0.1814159119964345	-0.1814159119964333	-0.015366606714187	-0.0002659707474179664	0.08187127252816019	-0.0198468072929837	-0.3755239460276441	-0.03370930519968572	0.007541254875297427	-0.4609273421931973	0.1344350744800056	-0.03507237318844312	0.4311483781541537	-17.07704004198346	24.98216323315723	-12.15888301139633	20.95590062264258	-841.9212954903386	-73.25496307869739	-0.02234001312728251	-0.7181839743660999	-0.5357087216518887	2.381136605615762	-6.745243718318879	-1.290772950188071	-2.804813948891614	-0.02437046985720254	-6.287614797089337	-6.287614797089178	-0.689631687343209	0.01661326346406733	0.8114925097343051	-1.234816691762316	-3.162001938945813e-08	3.65434029058725e-08	-9.727452878713543e-08	3.79577391814419e-08	-1.924321464165335e-08	1.205803287846477e-07	-6.743194002380524e-09
1.02	-0.1039020997889592	-0.07231772984907815	0.4219844114781247	2.08510368953335	-0.2560756215894677	0.2986577615415389	-0.9598544504262564	2.089617317609671	2.08961731760967	0.0314327266241712	-0.1744891279324866	0.2516265506460635	0.1432910742131578	0.006797133143033349	-0.008409884820568828	0.1086434211656165	-0.352102792439098	-0.06177243417604918	-0.1178067601134162	0.0007249868785375587	-0.2446544889158881	-0.2446544889158858	-0.02235787427108668	-0.0002292937940976429	0.08994891598932862	-0.03226376817256607	-0.3770164670102877	-0.0335521051250132	0.007613463755863521	-0.4625143168264236	0.1344375958041807	-0.03497863227199336	0.4328422505855195	-17.19168699497587	24.99380916260199	-12.19761506335476	20.87540707857954	-843.9941873698407	-73.24329165526702	-0.02248190517999914	-0.6831646236581349	-0.5273094955630434	2.414141059013417	-6.846348837501261	-1.303691974147924	-2.822178862512507	-0.02597364863677944	-6.360189705644467	-6.360189705644551	-0.7086228477652952	-0.02416443470485067	0.7996463612777738	-1.26193003245532	-3.441753917113876e-08	3.048192664307842e-08	-1.140173683414216e-07	2.164458587223519e-08	-3.481789173982308e-08	1.528569887054481e-07	-1.303231775765062e-08
1.03	-0.1038676369076042	-0.07242801668504528	0.4231921352756295	2.08123821581122	-0.256757249985094	0.2973392918468179	-0.9598485500240478	2.086851686632844	2.086851686632844	0.03117344777752173	-0.1744910946296731	0.2525661888190484	0.1429070389832947	0.0001722720612180537	-0.01362456406404274	0.1329551735445607	-0.4211654041268807	-0.07451125024717681	-0.1458730238266103	0.0004496851035969403	-0.3085810430810432	-0.3085810430810424	-0.02952331198415789	-0.0001618266191026197	0.09795156640760509	-0.04451008321573024	-0.3785486264793974	-0.03333058773272235	0.007714088809505032	-0.4642334237739383	0.134656325496675	-0.03476007790785825	0.434615871654764	-17.21889869204407	24.93440561159742	-12.22326891263142	20.60584765619408	-846.0966657727488	-73.28413067479708	-0.02267183571152995	-0.6406310261917328	-0.5151084192123268	2.447757436271503	-6.962244686690971	-1.252651295464316	-2.79674554573457	-0.02911971092226623	-6.425284865083911	-6.425284865084147	-0.724327614993433	0.02251360337295366	0.7964936134010733	-1.200990085274248	-3.722667510816806e-08	2.442073375985252e-08	-1.307916071192252e-07	5.359684205991962e-09	-5.039024788520824e-08	1.85122842683906e-07	-1.931753409217839e-08
1.04	-0.103897119472209	-0.072589762569542	0.4246445896187109	2.076676910501761	-0.2575650015158051	0.2957405804309566	-0.9598455648934004	2.083443510795738	2.083443510795736	0.03084174987735067	-0.1744923243931459	0.2535850373424773	0.1424015390339942	-0.00599195605054953	-0.0187016945264845	0.1575895302809217	-0.4912691099056384	-0.0869970611930705	-0.1738551043402725	0.000141932568656444	-0.3731634609715133	-0.3731634609715134	-0.03684168497384282	-8.190705325670562e-05	0.105790986077822	-0.0565567120599855	-0.3800807859485086	-0.0331090703404384	0.007814713863144241	-0.4659525307214521	0.1348750551891706	-0.03454152354373152	0.4363894927240086	-17.23428338707411	24.87779264609084	-12.25491963349584	20.32105662581566	-848.0860481690966	-73.19096101496295	-0.02290399197567199	-0.591038029648574	-0.4997997393566271	2.478661930496768	-7.054567655696239	-1.253090949101146	-2.805342222606139	-0.03246380063683971	-6.491362450707487	-6.491362450707465	-0.739209903088055	-0.0216739565347025	0.7670002116658086	-1.221992792673577	-3.931711092451124e-08	1.777694461066543e-08	-1.451026526742225e-07	-1.17961294061948e-08	-6.604559594415076e-08	2.204062526483847e-07	-2.594107628265874e-08
1.05	-0.1039858709958677	-0.07280148572161976	0.4263449271871129	2.071409774472456	-0.2584960957089877	0.2938626391228665	-0.9598456683419303	2.079386343744258	2.079386343744262	0.0304361797298948	-0.1744926913342052	0.2546810788610298	0.1417766851636706	-0.01167216221017132	-0.02360932570559994	0.1825250244273403	-0.5622948393237376	-0.0991559229762959	-0.2017011526081197	-0.0001556247574287567	-0.4383691027336052	-0.4383691027336057	-0.04429227761634948	9.478936423613774e-06	0.1133526631836517	-0.06837044102434693	-0.3815945683393687	-0.03281758595737244	0.007944030294678845	-0.4677994423309396	0.1353078218124104	-0.03419239322323442	0.4382018079624113	-17.16003441563528	24.74616191072158	-12.27162509334234	19.85915348576032	-850.0546211965441	-73.15881602181324	-0.02318641768981662	-0.5435962308555745	-0.4812092491328504	2.508032812004164	-7.147100311371411	-1.187375875273337	-2.769463039088413	-0.02735207126564522	-6.550031468328793	-6.550031468328919	-0.7509925660013392	0.02466314172813166	0.7410435364979964	-1.154501135996474	-4.138508736208298e-08	1.111494932816705e-08	-1.593367234410072e-07	-2.89791590166923e-08	-8.170353750039194e-08	2.557839612374265e-07	-3.257519115613762e-08
1.06	-0.1041288414454622	-0.07306127807387773	0.4282960276280368	2.065428276203674	-0.2595467969364697	0.2917071919500506	-0.9598485374382665	2.074674146989283	2.074674146989286	0.02995550193177331	-0.174492120762351	0.2558507955659333	0.1410350063661674	-0.0168357412392678	-0.0283155345625228	0.2077421047853069	-0.6341415578020289	-0.110918468053126	-0.2293562772845429	-0.0004111969903820268	-0.5041694016704471	-0.5041694016704475	-0.05186321510562839	0.0001055955264539733	0.1205260233477393	-0.07992169749586953	-0.3831083507302228	-0.0325261015743098	0.008073346726211015	-0.4696463539404265	0.1357405884356495	-0.03384326290274197	0.4400141232008214	-17.07459203692622	24.61684277005016	-12.29357720777395	19.38362556321487	-851.9157411655983	-72.99761403002482	-0.02350978193622224	-0.4877126035434736	-0.4595152749181368	2.534979172806363	-7.218765467734597	-1.173827607822077	-2.767157504321364	-0.02406678201060136	-6.610293885657517	-6.610293885657398	-0.7632788724425101	-0.02072783646469681	0.6893368233173053	-1.169498294105833	-4.330820777209845e-08	5.151012842724888e-09	-1.69052187321673e-07	-4.38462701650847e-08	-9.611056166022051e-08	3.004336717636622e-07	-3.986780153837016e-08
1.07	-0.1043207018952595	-0.07336702132965706	0.4305006368805919	2.058724525945303	-0.2607129273921393	0.2892762493645538	-0.9598537350086628	2.069301087553674	2.069301087553681	0.02939863967456331	-0.1744905648173905	0.2570899309127638	0.1401792080842226	-0.02143229194833144	-0.03278925331828518	0.2332204286154321	-0.7067186565208711	-0.1222201887172042	-0.2567846276693102	-0.0006219223456724349	-0.5705317194370968	-0.5705317194370967	-0.0595225790321119	0.0002063843707386552	0.1272009396639575	-0.09118500400381845	-0.3845513069615241	-0.03216014510252078	0.008229532754451414	-0.4716074388035681	0.1363873046744518	-0.03336174952416095	0.4418019415047365	-16.89665875194615	24.41010709110421	-12.29892956533819	18.73951261156277	-853.7017889682954	-72.90190373366336	-0.02388196321064938	-0.4300334512454342	-0.4347326112827619	2.560339128541112	-7.293723022430036	-1.09519671850523	-2.723569010231333	-0.01861620123326885	-6.662576277379687	-6.6625762773797	-0.7692945382510502	0.02557343080897436	0.6415417048333851	-1.096780636630708	-4.522362307426518e-08	-7.757928556398174e-10	-1.78527299772226e-07	-5.859019416123745e-08	-1.104510476606654e-07	3.455765738823019e-07	-4.719543827745129e-08
